<svg version="1.1" id="Layer_1" xmlns="http://www.w3.org/2000/svg" x="0" y="0" viewBox="0 0 500 550" xml:space="preserve"><style>.st0{fill:#61bb46}</style><path class="st0" d="M456.8 184.4c-27.9-35-67.4-55.8-105.5-55.8-27 0-45.7 7.1-62.3 13.4-13.5 5.1-26.3 10-41.5 10-16.4 0-31-5.2-46.5-10.8-17.3-6.2-35.2-12.6-57.6-12.6-43.4 0-87.5 26.6-115.3 69.5-.2.3-.4.6-.5.9l-1.4 2.3h408.9l.4-.4c6.2-5.3 13.2-10.1 20.7-14.2l1.6-.9-1-1.4z"/><path class="st0" d="M342.1 2.3l-.2-1.4-1.4.1c-29.2 2-63.8 20.7-84.1 45.4-22.2 27.1-32.5 59.9-27.4 87.5l.2 1.2h3.5c29.4 0 62.4-17.2 82.6-43.3 21.4-27.4 31.2-60.1 26.8-89.5z"/><path d="M27.5 199.1c-12.1 19-20.5 46.3-22.7 70.2H397c4.2-26.2 18.3-51.2 40.7-70.2H27.5z" fill-rule="evenodd" clip-rule="evenodd" fill="#fdb827"/><path d="M406 338.3c-9.6-21.7-12.7-45.5-8.9-68.8l.3-1.7H5.2l-.1 1.3c-2.4 22.1-1.8 45.6 2 70l.2 1.3H407l-1-2.1z" fill="#f5821f"/><path d="M472 401c-29.7-11.3-53.2-33.5-66.1-62.7l-.4-.9H6.6l.3 1.7C10.6 362.5 17 386 26.1 409l.4.9h443.3l.8-1.8c.8-1.7 1.5-3.4 2.3-5.2l.6-1.4-1.5-.5z" fill="#e03a3e"/><path d="M25.3 406.9l.8 2c8.8 22.4 20.1 44.2 33.4 64.6 1.1 1.7 2.3 3.5 3.5 5.2l.4.7h367.3l.4-.7c2.4-3.5 4.7-7 6.4-9.5 14.9-22.8 21.2-35 32.6-60.2l1-2.1H25.3z" fill="#963d97"/><path d="M61.4 476.5l1.6 2.3c21.8 32.5 51.8 69.8 91.3 70.2h.8c16.5 0 27.6-5 39.4-10.3 13.9-6.2 28.3-12.6 53.7-12.8h.8c25.1 0 39.1 6.4 52.6 12.7 11.5 5.3 22.4 10.3 38.8 10.3h.7c37.8-.4 68-37.7 90.1-70.1l1.6-2.3H61.4z" fill="#009ddc"/></svg>